<svg id="svg" version="1.1" xmlns="http://www.w3.org/2000/svg" xmlns:xlink="http://www.w3.org/1999/xlink" width="400" height="324.44444444444446" viewBox="0, 0, 400,324.44444444444446"><g id="svgg"><path id="path0" d="M166.396 69.478 C 163.771 69.642,162.395 69.892,161.201 70.424 C 160.158 70.889,158.130 71.318,155.526 71.625 C 152.858 71.939,151.120 72.311,150.439 72.713 C 149.870 73.049,147.894 73.559,146.049 73.847 C 144.204 74.135,142.110 74.646,141.396 74.982 C 140.682 75.319,139.677 75.758,139.164 75.958 L 138.230 76.322 138.457 78.664 C 138.751 81.696,138.537 81.570,143.808 81.828 C 148.301 82.048,148.360 82.061,149.510 83.071 C 150.149 83.632,150.816 84.091,150.992 84.091 C 151.168 84.091,151.487 84.493,151.700 84.984 C 151.913 85.475,152.403 86.207,152.790 86.612 C 153.894 87.767,153.896 87.837,153.896 117.512 L 153.896 145.657 153.210 146.394 C 152.421 147.241,146.972 147.162,142.370 146.237 C 139.687 145.697,136.966 145.649,135.387 146.112 C 134.764 146.295,132.281 146.587,129.870 146.762 C 123.225 147.243,120.221 147.690,118.854 148.403 C 118.172 148.758,116.456 149.233,115.041 149.459 C 113.171 149.756,112.153 150.108,111.317 150.746 C 110.684 151.228,109.846 151.623,109.456 151.623 C 108.496 151.623,106.755 152.377,106.217 153.026 C 105.976 153.316,105.246 153.649,104.594 153.764 C 103.942 153.879,102.971 154.387,102.435 154.892 C 101.899 155.398,100.950 156.025,100.325 156.286 C 99.700 156.548,98.834 157.139,98.401 157.602 C 97.968 158.064,97.375 158.442,97.082 158.442 C 96.790 158.442,96.227 158.880,95.831 159.416 C 95.434 159.951,94.896 160.390,94.633 160.390 C 94.371 160.390,94.156 160.505,94.156 160.645 C 94.156 160.786,92.663 162.429,90.838 164.298 C 89.013 166.166,87.267 168.243,86.958 168.912 C 86.649 169.582,86.264 170.130,86.104 170.130 C 85.944 170.130,85.542 170.751,85.210 171.510 C 84.879 172.269,84.199 173.370,83.700 173.956 C 83.201 174.543,82.792 175.244,82.792 175.514 C 82.792 176.107,81.851 178.004,81.419 178.284 C 81.249 178.394,80.911 179.528,80.668 180.805 C 80.424 182.082,80.007 183.527,79.740 184.015 C 78.635 186.036,78.489 186.819,78.007 193.344 C 77.196 204.323,77.745 212.289,79.578 216.122 C 79.933 216.864,80.407 218.372,80.631 219.472 C 80.856 220.572,81.194 221.572,81.383 221.694 C 81.898 222.025,82.792 223.901,82.792 224.648 C 82.792 225.008,83.204 225.782,83.707 226.369 C 84.211 226.955,84.811 227.906,85.042 228.481 C 85.272 229.057,85.809 229.903,86.234 230.362 C 86.660 230.821,87.093 231.537,87.198 231.954 C 87.302 232.370,87.746 232.874,88.183 233.073 C 88.621 233.273,89.072 233.693,89.185 234.007 C 89.485 234.840,94.191 239.377,95.258 239.862 C 95.759 240.089,96.244 240.564,96.337 240.917 C 96.429 241.270,96.701 241.558,96.942 241.558 C 97.587 241.558,99.797 242.632,100.089 243.087 C 100.228 243.302,101.178 243.728,102.200 244.032 C 103.222 244.336,104.862 244.964,105.844 245.426 C 108.474 246.663,119.646 246.720,122.240 245.508 C 123.180 245.070,125.300 244.547,127.273 244.267 C 129.373 243.969,131.079 243.538,131.717 243.144 C 132.286 242.792,133.963 242.276,135.444 241.997 C 136.924 241.717,138.469 241.227,138.877 240.906 C 139.578 240.354,141.163 239.897,143.912 239.453 C 144.582 239.345,145.130 239.133,145.130 238.983 C 145.130 238.564,147.073 237.768,148.686 237.526 C 149.482 237.406,150.620 237.008,151.215 236.640 C 153.445 235.261,155.433 236.910,156.067 240.664 C 156.418 242.747,156.677 243.453,157.230 243.831 C 157.621 244.099,158.233 244.608,158.591 244.961 C 159.422 245.783,163.285 245.805,168.994 245.019 C 171.136 244.724,173.897 244.395,175.128 244.288 C 178.786 243.971,180.027 241.949,178.694 238.474 C 178.420 237.760,178.034 236.591,177.836 235.877 C 177.579 234.950,177.424 211.229,177.293 153.084 C 177.112 72.249,177.105 71.584,176.461 70.704 C 175.331 69.160,174.037 69.002,166.396 69.478 M224.026 69.490 C 221.247 69.663,219.877 69.907,218.669 70.445 C 217.645 70.900,215.609 71.337,213.159 71.627 C 210.677 71.921,208.823 72.321,208.032 72.733 C 207.350 73.089,205.374 73.598,203.640 73.864 C 201.906 74.130,200.049 74.561,199.513 74.820 C 198.977 75.079,197.970 75.520,197.275 75.798 L 196.011 76.305 196.197 78.768 C 196.431 81.863,195.984 81.602,201.472 81.850 C 206.125 82.061,206.161 82.069,207.309 83.077 C 207.944 83.635,208.589 84.091,208.741 84.091 C 208.893 84.091,209.276 84.639,209.593 85.308 C 209.910 85.978,210.373 86.676,210.622 86.859 C 211.627 87.600,211.673 91.076,211.681 166.779 L 211.688 243.785 213.218 244.817 C 214.936 245.977,214.960 245.977,223.052 244.957 C 225.106 244.698,228.065 244.398,229.628 244.292 C 235.447 243.894,235.001 247.294,235.036 203.054 C 235.067 164.491,234.994 166.234,236.582 166.234 C 236.764 166.234,237.336 165.865,237.855 165.414 C 238.374 164.963,239.164 164.522,239.610 164.434 C 242.119 163.943,243.310 163.564,244.093 163.008 C 244.637 162.622,246.233 162.194,248.313 161.875 C 250.153 161.593,252.069 161.150,252.570 160.891 C 254.904 159.684,264.209 159.638,265.534 160.827 C 265.830 161.092,267.021 161.548,268.182 161.839 C 269.343 162.131,270.528 162.647,270.817 162.986 C 271.106 163.324,271.836 163.874,272.440 164.208 C 273.045 164.541,273.672 165.108,273.835 165.467 C 273.998 165.826,274.509 166.339,274.971 166.608 C 275.509 166.920,275.967 167.613,276.242 168.532 C 276.478 169.321,276.935 170.260,277.257 170.617 C 277.578 170.974,278.019 172.070,278.237 173.052 C 278.454 174.034,278.926 175.255,279.286 175.764 C 280.499 177.484,280.593 180.248,280.535 212.260 C 280.472 246.312,280.365 244.223,282.223 245.171 C 283.679 245.914,283.534 245.917,291.558 244.960 C 293.791 244.694,296.929 244.368,298.532 244.235 L 301.447 243.994 302.424 242.045 L 303.401 240.097 303.654 224.188 C 304.061 198.558,303.824 172.549,303.168 170.912 C 302.876 170.182,302.475 168.282,302.278 166.691 C 301.747 162.409,301.315 160.465,300.852 160.288 C 300.625 160.201,300.139 159.348,299.773 158.393 C 298.964 156.286,298.472 155.697,293.170 150.485 C 292.716 150.040,292.163 149.675,291.939 149.675 C 291.326 149.675,289.038 148.444,288.904 148.042 C 288.839 147.849,286.817 147.401,284.409 147.047 C 282.002 146.692,279.521 146.263,278.896 146.093 C 277.392 145.683,274.466 145.695,273.682 146.114 C 273.338 146.298,270.634 146.729,267.673 147.071 C 263.797 147.519,261.882 147.890,260.838 148.395 C 260.040 148.782,258.084 149.292,256.491 149.530 C 254.589 149.814,253.278 150.197,252.671 150.647 C 252.124 151.051,250.873 151.454,249.613 151.632 C 247.312 151.958,245.902 152.404,245.130 153.051 C 244.862 153.276,243.492 153.701,242.086 153.996 C 240.680 154.290,239.365 154.735,239.164 154.984 C 238.419 155.907,236.781 156.185,235.968 155.528 L 235.227 154.928 235.065 113.422 L 234.903 71.916 234.110 70.858 C 232.818 69.137,231.835 69.003,224.026 69.490 M140.839 157.982 C 141.426 158.222,142.113 158.625,142.365 158.877 C 142.618 159.130,143.475 159.434,144.269 159.554 C 145.710 159.770,146.451 160.279,149.391 163.068 C 150.097 163.738,150.798 164.286,150.950 164.286 C 151.101 164.286,151.464 164.761,151.756 165.341 C 152.048 165.921,152.613 166.809,153.011 167.313 L 153.734 168.229 153.820 196.496 L 153.907 224.763 153.120 225.793 C 152.450 226.672,151.951 226.907,149.737 227.382 C 148.309 227.689,147.068 228.128,146.981 228.357 C 146.785 228.866,144.925 229.439,142.532 229.727 C 141.550 229.845,139.943 230.328,138.961 230.799 C 135.781 232.325,121.999 232.272,120.402 230.728 C 119.984 230.325,119.033 229.817,118.287 229.602 C 117.541 229.386,116.299 228.697,115.527 228.071 C 113.158 226.151,110.721 223.878,110.718 223.586 C 110.716 223.433,110.344 223.017,109.892 222.661 C 109.439 222.305,108.707 221.298,108.263 220.423 C 107.819 219.547,107.325 218.831,107.164 218.831 C 107.003 218.831,106.609 218.137,106.287 217.289 C 105.966 216.441,105.381 215.268,104.987 214.683 C 104.593 214.098,104.112 212.876,103.917 211.967 C 103.722 211.058,103.255 209.883,102.880 209.356 C 102.354 208.618,102.095 207.451,101.752 204.280 C 101.507 202.015,100.997 198.998,100.619 197.576 C 99.762 194.357,99.851 187.209,100.779 184.740 C 101.081 183.937,101.511 181.599,101.734 179.545 C 102.073 176.417,102.281 175.602,103.017 174.519 C 103.501 173.808,103.896 172.954,103.896 172.621 C 103.896 171.942,104.880 170.130,105.250 170.130 C 105.381 170.130,105.773 169.488,106.120 168.703 C 106.467 167.919,107.205 166.942,107.759 166.532 C 108.313 166.122,108.766 165.599,108.766 165.369 C 108.766 165.140,109.200 164.727,109.731 164.453 C 110.261 164.179,110.858 163.650,111.057 163.278 C 111.256 162.906,112.101 162.304,112.934 161.940 C 113.767 161.577,114.704 161.012,115.017 160.685 C 115.330 160.358,116.206 159.928,116.965 159.728 C 117.724 159.529,119.075 158.980,119.968 158.509 C 122.514 157.165,137.892 156.776,140.839 157.982 " stroke="none" fill="#060606" fill-rule="evenodd"></path><path id="path1" d="M0.000 162.338 L 0.000 324.675 200.000 324.675 L 400.000 324.675 400.000 162.338 L 400.000 0.000 200.000 0.000 L 0.000 0.000 0.000 162.338 M175.393 67.703 C 175.919 68.145,176.553 68.506,176.803 68.506 C 178.508 68.506,178.395 63.226,178.571 150.797 C 178.719 223.783,178.782 231.422,179.253 232.305 C 180.055 233.810,180.625 237.126,180.655 240.461 C 180.687 244.098,180.165 244.904,177.435 245.428 C 176.542 245.599,175.336 245.978,174.754 246.271 C 173.140 247.083,170.200 247.389,163.935 247.396 L 158.227 247.403 156.887 246.185 C 155.453 244.883,154.870 243.723,154.870 242.174 C 154.870 241.241,153.898 239.517,152.949 238.767 C 152.192 238.169,149.643 238.612,148.214 239.590 C 147.367 240.171,146.138 240.606,144.681 240.841 C 143.305 241.063,142.181 241.448,141.758 241.842 C 141.330 242.242,140.041 242.677,138.332 242.999 C 136.825 243.283,135.364 243.712,135.085 243.952 C 134.287 244.638,132.549 245.119,130.056 245.341 C 128.478 245.481,127.318 245.801,126.348 246.361 C 124.949 247.170,123.469 247.350,114.773 247.772 C 110.714 247.968,104.439 247.269,103.297 246.492 C 102.645 246.048,101.599 245.552,100.974 245.390 C 99.200 244.931,98.052 244.429,98.052 244.112 C 98.052 243.953,97.395 243.504,96.592 243.114 C 95.790 242.724,95.053 242.153,94.956 241.846 C 94.858 241.539,94.383 241.143,93.899 240.966 C 92.772 240.554,87.987 235.961,87.987 235.292 C 87.987 235.012,87.721 234.700,87.395 234.596 C 87.070 234.493,86.476 233.826,86.076 233.113 C 85.676 232.401,85.204 231.818,85.028 231.818 C 84.851 231.818,84.478 231.270,84.199 230.601 C 83.919 229.931,83.269 228.851,82.754 228.200 C 82.240 227.549,81.818 226.729,81.818 226.378 C 81.818 226.026,81.384 225.193,80.854 224.526 C 80.235 223.746,79.753 222.617,79.507 221.364 C 79.296 220.292,78.867 219.174,78.554 218.880 C 77.865 218.231,77.404 216.507,77.108 213.474 C 76.987 212.224,76.694 210.982,76.457 210.714 C 74.856 208.899,74.894 193.409,76.508 190.195 C 76.750 189.712,76.951 188.763,76.954 188.084 C 76.963 186.149,77.867 182.343,78.414 181.940 C 78.687 181.739,79.150 180.424,79.444 179.018 C 79.839 177.125,80.217 176.204,80.898 175.472 C 81.404 174.927,81.818 174.195,81.818 173.845 C 81.818 173.494,82.181 172.816,82.625 172.338 C 83.068 171.860,83.670 170.871,83.962 170.141 C 84.254 169.411,84.746 168.635,85.055 168.417 C 85.365 168.198,85.845 167.581,86.123 167.045 C 86.994 165.365,94.419 157.856,95.649 157.412 C 96.264 157.189,96.987 156.673,97.255 156.263 C 97.523 155.854,97.942 155.519,98.186 155.519 C 98.431 155.519,99.337 154.935,100.201 154.222 C 101.065 153.508,102.240 152.836,102.812 152.729 C 103.383 152.621,103.932 152.322,104.031 152.064 C 104.251 151.491,106.178 150.649,107.270 150.649 C 107.708 150.649,108.517 150.271,109.066 149.809 C 109.633 149.332,110.933 148.766,112.072 148.500 C 113.176 148.243,114.527 147.756,115.075 147.420 C 115.698 147.037,117.516 146.608,119.923 146.277 C 122.041 145.985,124.099 145.533,124.497 145.273 C 125.748 144.453,131.832 144.090,142.370 144.207 L 152.435 144.318 152.522 118.506 C 152.611 91.751,152.618 91.900,151.172 87.825 C 150.454 85.802,150.211 85.467,148.965 84.783 C 148.195 84.360,147.200 83.813,146.753 83.567 C 146.197 83.261,144.757 83.120,142.177 83.119 C 137.544 83.116,137.492 83.076,137.247 79.289 C 136.921 74.256,137.414 73.640,142.354 72.911 C 144.309 72.622,146.135 72.185,146.412 71.940 C 147.142 71.292,149.145 70.813,152.110 70.577 C 153.849 70.438,155.285 70.101,156.452 69.558 C 157.843 68.911,159.006 68.690,162.192 68.468 C 164.701 68.293,166.831 67.956,167.915 67.561 C 170.444 66.639,170.769 66.584,172.690 66.749 C 173.924 66.855,174.719 67.135,175.393 67.703 M232.431 67.322 C 232.719 67.575,233.557 68.084,234.294 68.455 C 236.290 69.458,236.190 67.370,236.364 111.743 C 236.453 134.540,236.626 153.293,236.748 153.414 C 236.870 153.536,237.454 153.483,238.046 153.297 C 238.639 153.110,239.813 152.860,240.655 152.742 C 241.498 152.624,242.368 152.308,242.590 152.041 C 243.163 151.351,244.342 150.947,246.656 150.650 C 247.886 150.492,249.069 150.107,249.697 149.660 C 250.396 149.162,251.665 148.788,253.669 148.491 C 255.621 148.200,256.839 147.847,257.284 147.442 C 257.763 147.004,259.055 146.674,261.816 146.282 C 263.940 145.980,265.985 145.533,266.362 145.287 C 268.775 143.715,283.985 143.727,285.725 145.302 C 286.005 145.555,287.232 145.971,288.453 146.227 C 290.008 146.553,290.898 146.936,291.427 147.506 C 291.841 147.953,292.589 148.410,293.087 148.520 C 294.587 148.853,300.639 155.026,300.646 156.230 C 300.648 156.531,301.087 157.257,301.622 157.843 C 302.157 158.429,302.661 159.351,302.743 159.892 C 303.186 162.828,303.299 163.312,303.542 163.312 C 305.224 163.312,306.037 240.379,304.383 243.123 C 303.631 244.371,302.040 245.455,300.960 245.455 C 300.548 245.455,299.104 245.844,297.752 246.320 C 294.914 247.318,282.384 247.902,280.895 247.105 C 279.055 246.120,278.326 242.504,278.627 235.864 C 279.593 214.601,279.482 186.419,278.415 181.818 C 278.146 180.657,277.690 178.273,277.403 176.519 C 277.087 174.592,276.710 173.265,276.452 173.166 C 275.957 172.976,275.000 170.748,275.000 169.786 C 275.000 169.425,274.416 168.557,273.701 167.857 C 272.987 167.157,272.403 166.382,272.403 166.136 C 272.403 165.889,271.801 165.507,271.066 165.287 C 270.330 165.066,269.391 164.521,268.977 164.075 C 267.348 162.317,248.844 161.906,247.738 163.604 C 247.354 164.194,245.497 164.882,243.415 165.204 C 241.870 165.443,240.917 165.793,240.224 166.376 C 239.681 166.834,238.872 167.208,238.428 167.208 C 236.169 167.208,236.364 163.704,236.364 204.379 C 236.364 247.911,236.689 244.746,232.143 245.490 C 231.339 245.622,229.805 246.052,228.734 246.447 C 226.324 247.335,214.431 247.811,212.689 247.089 C 210.348 246.119,210.571 253.722,210.390 168.506 C 210.234 95.375,210.201 91.982,209.633 90.584 C 209.306 89.781,208.892 88.393,208.712 87.500 C 208.337 85.644,207.960 85.065,207.126 85.065 C 206.804 85.065,206.344 84.882,206.105 84.659 C 204.742 83.388,203.652 83.117,199.892 83.117 C 195.294 83.117,195.301 83.122,195.015 79.397 C 194.616 74.207,195.054 73.655,200.190 72.879 C 202.228 72.570,203.896 72.203,203.896 72.062 C 203.896 71.589,206.956 70.804,209.578 70.605 C 211.370 70.469,212.694 70.156,213.848 69.597 C 215.211 68.936,216.304 68.731,219.756 68.486 C 222.539 68.289,224.532 67.973,225.565 67.566 C 228.330 66.476,231.344 66.369,232.431 67.322 M125.647 158.713 C 124.842 158.838,123.655 159.267,123.011 159.665 C 122.366 160.064,121.558 160.390,121.215 160.390 C 119.861 160.390,116.744 161.418,116.337 161.999 C 116.100 162.337,115.398 162.781,114.776 162.986 C 112.858 163.619,108.585 167.709,107.315 170.130 C 106.893 170.933,106.262 171.829,105.914 172.119 C 105.535 172.435,105.185 173.284,105.043 174.230 C 104.782 175.970,104.506 176.616,103.664 177.458 C 102.055 179.067,102.205 204.428,103.834 206.177 C 104.221 206.592,104.616 207.454,104.713 208.093 C 105.187 211.226,105.574 212.540,106.125 212.884 C 106.450 213.087,106.966 214.142,107.270 215.228 C 107.592 216.376,108.071 217.334,108.413 217.517 C 108.737 217.691,109.195 218.313,109.430 218.900 C 109.666 219.487,110.237 220.333,110.699 220.779 C 111.161 221.226,111.750 222.004,112.007 222.509 C 112.264 223.014,112.772 223.580,113.136 223.767 C 113.501 223.954,114.164 224.491,114.610 224.960 C 115.057 225.428,115.983 226.104,116.668 226.461 C 117.352 226.818,118.043 227.351,118.203 227.645 C 118.362 227.938,119.263 228.363,120.204 228.587 C 121.145 228.812,122.454 229.275,123.111 229.617 C 125.887 231.058,132.040 231.107,135.173 229.712 C 136.141 229.282,138.156 228.809,139.935 228.596 C 142.069 228.340,143.298 228.023,143.924 227.569 C 144.421 227.207,145.955 226.674,147.333 226.384 C 148.776 226.080,150.092 225.598,150.437 225.246 C 150.767 224.910,151.388 224.502,151.817 224.339 L 152.597 224.042 152.597 197.642 C 152.597 171.541,152.590 171.227,151.923 169.955 C 151.552 169.248,151.037 167.981,150.778 167.140 C 150.442 166.050,150.054 165.491,149.423 165.191 C 148.937 164.959,148.395 164.442,148.218 164.041 C 148.042 163.640,147.677 163.312,147.407 163.311 C 147.137 163.311,146.341 162.800,145.639 162.175 C 144.937 161.550,144.343 161.039,144.319 161.039 C 143.255 161.039,140.066 160.113,139.022 159.501 C 137.519 158.621,129.337 158.138,125.647 158.713 " stroke="none" fill="#fbfbfb" fill-rule="evenodd"></path><path id="path2" d="M170.292 66.765 C 169.935 66.856,168.865 67.214,167.915 67.561 C 166.831 67.956,164.701 68.293,162.192 68.468 C 159.006 68.690,157.843 68.911,156.452 69.558 C 155.285 70.101,153.849 70.438,152.110 70.577 C 149.145 70.813,147.142 71.292,146.412 71.940 C 146.135 72.185,144.309 72.622,142.354 72.911 C 137.414 73.640,136.921 74.256,137.247 79.289 C 137.492 83.076,137.544 83.116,142.177 83.119 C 144.757 83.120,146.197 83.261,146.753 83.567 C 147.200 83.813,148.195 84.360,148.965 84.783 C 150.211 85.467,150.454 85.802,151.172 87.825 C 152.618 91.900,152.611 91.751,152.522 118.506 L 152.435 144.318 142.370 144.207 C 131.832 144.090,125.748 144.453,124.497 145.273 C 124.099 145.533,122.041 145.985,119.923 146.277 C 117.516 146.608,115.698 147.037,115.075 147.420 C 114.527 147.756,113.176 148.243,112.072 148.500 C 110.933 148.766,109.633 149.332,109.066 149.809 C 108.517 150.271,107.708 150.649,107.270 150.649 C 106.178 150.649,104.251 151.491,104.031 152.064 C 103.932 152.322,103.383 152.621,102.812 152.729 C 102.240 152.836,101.065 153.508,100.201 154.222 C 99.337 154.935,98.431 155.519,98.186 155.519 C 97.942 155.519,97.523 155.854,97.255 156.263 C 96.987 156.673,96.264 157.189,95.649 157.412 C 94.419 157.856,86.994 165.365,86.123 167.045 C 85.845 167.581,85.365 168.198,85.055 168.417 C 84.746 168.635,84.254 169.411,83.962 170.141 C 83.670 170.871,83.068 171.860,82.625 172.338 C 82.181 172.816,81.818 173.494,81.818 173.845 C 81.818 174.195,81.404 174.927,80.898 175.472 C 80.217 176.204,79.839 177.125,79.444 179.018 C 79.150 180.424,78.687 181.739,78.414 181.940 C 77.867 182.343,76.963 186.149,76.954 188.084 C 76.951 188.763,76.750 189.712,76.508 190.195 C 74.894 193.409,74.856 208.899,76.457 210.714 C 76.694 210.982,76.987 212.224,77.108 213.474 C 77.404 216.507,77.865 218.231,78.554 218.880 C 78.867 219.174,79.296 220.292,79.507 221.364 C 79.753 222.617,80.235 223.746,80.854 224.526 C 81.384 225.193,81.818 226.026,81.818 226.378 C 81.818 226.729,82.240 227.549,82.754 228.200 C 83.269 228.851,83.919 229.931,84.199 230.601 C 84.478 231.270,84.851 231.818,85.028 231.818 C 85.204 231.818,85.676 232.401,86.076 233.113 C 86.476 233.826,87.070 234.493,87.395 234.596 C 87.721 234.700,87.987 235.012,87.987 235.292 C 87.987 235.961,92.772 240.554,93.899 240.966 C 94.383 241.143,94.858 241.539,94.956 241.846 C 95.053 242.153,95.790 242.724,96.592 243.114 C 97.395 243.504,98.052 243.953,98.052 244.112 C 98.052 244.429,99.200 244.931,100.974 245.390 C 101.599 245.552,102.645 246.048,103.297 246.492 C 104.439 247.269,110.714 247.968,114.773 247.772 C 123.469 247.350,124.949 247.170,126.348 246.361 C 127.318 245.801,128.478 245.481,130.056 245.341 C 132.549 245.119,134.287 244.638,135.085 243.952 C 135.364 243.712,136.825 243.283,138.332 242.999 C 140.041 242.677,141.330 242.242,141.758 241.842 C 142.181 241.448,143.305 241.063,144.681 240.841 C 146.138 240.606,147.367 240.171,148.214 239.590 C 149.643 238.612,152.192 238.169,152.949 238.767 C 153.898 239.517,154.870 241.241,154.870 242.174 C 154.870 243.723,155.453 244.883,156.887 246.185 L 158.227 247.403 163.935 247.396 C 170.200 247.389,173.140 247.083,174.754 246.271 C 175.336 245.978,176.542 245.599,177.435 245.428 C 180.165 244.904,180.687 244.098,180.655 240.461 C 180.625 237.126,180.055 233.810,179.253 232.305 C 178.782 231.422,178.719 223.783,178.571 150.797 C 178.395 63.226,178.508 68.506,176.803 68.506 C 176.553 68.506,175.919 68.145,175.393 67.703 C 174.427 66.889,171.738 66.395,170.292 66.765 M227.935 66.779 C 227.496 66.871,226.430 67.225,225.565 67.566 C 224.532 67.973,222.539 68.289,219.756 68.486 C 216.304 68.731,215.211 68.936,213.848 69.597 C 212.694 70.156,211.370 70.469,209.578 70.605 C 206.956 70.804,203.896 71.589,203.896 72.062 C 203.896 72.203,202.228 72.570,200.190 72.879 C 195.054 73.655,194.616 74.207,195.015 79.397 C 195.301 83.122,195.294 83.117,199.892 83.117 C 203.652 83.117,204.742 83.388,206.105 84.659 C 206.344 84.882,206.804 85.065,207.126 85.065 C 207.960 85.065,208.337 85.644,208.712 87.500 C 208.892 88.393,209.306 89.781,209.633 90.584 C 210.201 91.982,210.234 95.375,210.390 168.506 C 210.571 253.722,210.348 246.119,212.689 247.089 C 214.431 247.811,226.324 247.335,228.734 246.447 C 229.805 246.052,231.339 245.622,232.143 245.490 C 236.689 244.746,236.364 247.911,236.364 204.379 C 236.364 163.704,236.169 167.208,238.428 167.208 C 238.872 167.208,239.681 166.834,240.224 166.376 C 240.917 165.793,241.870 165.443,243.415 165.204 C 245.497 164.882,247.354 164.194,247.738 163.604 C 248.844 161.906,267.348 162.317,268.977 164.075 C 269.391 164.521,270.330 165.066,271.066 165.287 C 271.801 165.507,272.403 165.889,272.403 166.136 C 272.403 166.382,272.987 167.157,273.701 167.857 C 274.416 168.557,275.000 169.425,275.000 169.786 C 275.000 170.748,275.957 172.976,276.452 173.166 C 276.710 173.265,277.087 174.592,277.403 176.519 C 277.690 178.273,278.146 180.657,278.415 181.818 C 279.482 186.419,279.593 214.601,278.627 235.864 C 278.326 242.504,279.055 246.120,280.895 247.105 C 282.384 247.902,294.914 247.318,297.752 246.320 C 299.104 245.844,300.548 245.455,300.960 245.455 C 302.040 245.455,303.631 244.371,304.383 243.123 C 306.037 240.379,305.224 163.312,303.542 163.312 C 303.299 163.312,303.186 162.828,302.743 159.892 C 302.661 159.351,302.157 158.429,301.622 157.843 C 301.087 157.257,300.648 156.531,300.646 156.230 C 300.639 155.026,294.587 148.853,293.087 148.520 C 292.589 148.410,291.841 147.953,291.427 147.506 C 290.898 146.936,290.008 146.553,288.453 146.227 C 287.232 145.971,286.005 145.555,285.725 145.302 C 283.985 143.727,268.775 143.715,266.362 145.287 C 265.985 145.533,263.940 145.980,261.816 146.282 C 259.055 146.674,257.763 147.004,257.284 147.442 C 256.839 147.847,255.621 148.200,253.669 148.491 C 251.665 148.788,250.396 149.162,249.697 149.660 C 249.069 150.107,247.886 150.492,246.656 150.650 C 244.342 150.947,243.163 151.351,242.590 152.041 C 242.368 152.308,241.498 152.624,240.655 152.742 C 239.813 152.860,238.639 153.110,238.046 153.297 C 237.454 153.483,236.870 153.536,236.748 153.414 C 236.626 153.293,236.453 134.540,236.364 111.743 C 236.190 67.370,236.290 69.458,234.294 68.455 C 233.557 68.084,232.719 67.575,232.431 67.322 C 231.865 66.826,229.230 66.508,227.935 66.779 M174.174 68.212 C 174.950 68.407,176.074 68.976,176.672 69.475 L 177.760 70.383 177.926 151.182 L 178.092 231.981 178.860 234.578 C 179.594 237.064,180.235 240.986,180.024 241.705 C 179.969 241.892,179.835 242.454,179.725 242.954 C 179.492 244.015,177.771 244.889,175.162 245.273 C 174.269 245.405,172.755 245.715,171.796 245.963 C 170.837 246.210,167.540 246.511,164.470 246.631 L 158.888 246.849 157.399 245.421 C 156.090 244.166,155.843 243.700,155.347 241.558 C 154.735 238.915,153.777 237.696,152.294 237.674 C 151.199 237.658,147.669 238.649,147.078 239.139 C 146.484 239.632,143.712 240.584,142.875 240.584 C 142.540 240.584,141.340 241.023,140.208 241.558 C 139.076 242.094,137.711 242.536,137.175 242.540 C 136.640 242.544,135.325 242.922,134.253 243.380 C 133.182 243.837,130.792 244.496,128.943 244.842 C 127.094 245.189,125.195 245.673,124.722 245.917 C 121.588 247.536,106.105 247.601,104.268 246.003 C 103.974 245.747,102.930 245.283,101.948 244.972 C 100.966 244.660,99.492 243.984,98.673 243.469 C 97.854 242.954,97.027 242.532,96.835 242.532 C 96.643 242.532,96.117 242.094,95.667 241.558 C 95.216 241.023,94.696 240.584,94.510 240.584 C 93.488 240.584,85.255 231.346,84.417 229.259 C 84.175 228.655,83.635 227.755,83.218 227.259 C 82.801 226.763,82.245 225.751,81.983 225.008 C 81.721 224.266,81.229 223.266,80.888 222.787 C 80.548 222.308,80.052 221.112,79.785 220.130 C 79.519 219.148,79.004 217.614,78.640 216.721 C 78.277 215.828,77.822 214.075,77.630 212.825 C 77.438 211.575,76.987 208.891,76.627 206.860 C 75.857 202.509,75.803 199.546,76.433 196.334 C 76.686 195.047,77.139 191.951,77.440 189.455 C 77.850 186.049,78.187 184.521,78.788 183.334 C 79.229 182.465,79.742 180.888,79.928 179.830 C 80.114 178.772,80.582 177.435,80.966 176.859 C 81.351 176.283,81.941 175.191,82.278 174.432 C 82.615 173.673,83.021 173.052,83.181 173.052 C 83.341 173.052,83.799 172.358,84.200 171.510 C 85.792 168.141,92.763 160.277,96.266 157.896 C 99.737 155.539,100.193 155.216,101.136 154.450 C 101.672 154.016,102.476 153.546,102.922 153.406 C 103.369 153.266,104.245 152.831,104.870 152.438 C 105.495 152.045,106.794 151.464,107.756 151.146 C 108.718 150.828,110.304 150.147,111.279 149.634 C 112.255 149.121,113.367 148.699,113.751 148.697 C 114.134 148.695,115.690 148.258,117.208 147.727 C 118.726 147.196,120.479 146.756,121.104 146.750 C 121.729 146.743,122.825 146.593,123.539 146.417 C 128.888 145.094,139.976 144.439,144.968 145.150 C 146.218 145.329,148.435 145.563,149.894 145.671 L 152.549 145.868 152.919 144.491 C 153.637 141.825,153.224 89.709,152.474 88.312 C 152.139 87.687,151.627 86.710,151.336 86.142 C 150.058 83.643,146.939 82.437,142.045 82.550 C 138.309 82.636,137.669 81.992,137.664 78.149 C 137.661 75.204,139.986 73.396,143.813 73.368 C 144.448 73.364,145.990 72.990,147.240 72.538 C 148.490 72.086,150.317 71.583,151.299 71.420 C 152.281 71.257,154.107 70.956,155.357 70.750 C 156.607 70.544,158.025 70.174,158.507 69.928 C 158.990 69.681,161.328 69.252,163.702 68.975 C 166.077 68.697,168.677 68.349,169.481 68.202 C 171.608 67.812,172.593 67.814,174.174 68.212 M233.322 68.852 C 235.718 70.012,235.535 66.681,235.714 112.407 C 235.894 158.207,235.774 155.757,237.771 154.448 C 238.209 154.161,239.558 153.697,240.769 153.416 C 241.980 153.135,243.420 152.634,243.969 152.303 C 244.518 151.972,246.125 151.449,247.540 151.141 C 248.956 150.832,250.636 150.312,251.274 149.986 C 251.913 149.659,253.385 149.216,254.545 149.002 C 255.706 148.788,257.646 148.254,258.855 147.814 C 260.065 147.375,262.037 146.891,263.238 146.739 C 264.439 146.588,266.737 146.133,268.344 145.728 C 272.915 144.578,280.968 144.630,284.578 145.834 C 286.006 146.310,287.719 146.791,288.383 146.902 C 289.048 147.013,289.997 147.436,290.494 147.843 C 290.990 148.250,291.875 148.775,292.460 149.009 C 294.317 149.755,299.100 154.728,300.350 157.212 C 300.735 157.977,301.231 158.823,301.452 159.091 C 301.673 159.359,302.114 160.674,302.431 162.013 C 302.749 163.352,303.197 165.106,303.427 165.909 C 303.815 167.259,304.295 171.061,304.678 175.812 C 304.985 179.627,304.342 241.039,303.985 241.892 C 303.145 243.903,301.957 244.675,299.026 245.116 C 297.508 245.344,295.390 245.724,294.318 245.960 C 291.905 246.492,283.675 246.864,282.164 246.510 C 281.295 246.306,280.884 245.935,280.299 244.829 L 279.548 243.410 279.759 215.130 C 279.983 185.212,279.853 181.193,278.535 177.202 C 278.198 176.181,277.922 175.149,277.922 174.910 C 277.922 174.670,277.433 173.460,276.836 172.221 C 276.239 170.981,275.550 169.456,275.306 168.831 C 274.485 166.734,269.555 162.858,267.228 162.482 C 266.592 162.379,265.341 162.069,264.448 161.792 C 261.647 160.924,257.913 160.861,254.657 161.626 C 253.078 161.996,250.982 162.391,250.001 162.503 C 249.019 162.615,247.339 163.046,246.267 163.461 C 245.195 163.876,243.317 164.476,242.092 164.795 C 240.868 165.114,239.699 165.532,239.495 165.724 C 239.291 165.916,238.393 166.370,237.500 166.732 L 235.877 167.392 235.714 204.719 C 235.595 232.132,235.452 242.219,235.176 242.698 C 234.429 243.998,233.480 244.514,230.967 244.989 C 229.560 245.255,227.279 245.699,225.898 245.977 C 219.113 247.339,212.376 246.675,211.386 244.546 C 211.143 244.025,211.031 221.766,211.013 170.520 C 210.984 90.699,210.979 90.397,209.646 87.601 C 209.162 86.586,208.766 85.635,208.766 85.489 C 208.766 85.216,206.198 83.513,205.032 83.012 C 204.675 82.858,202.641 82.679,200.511 82.613 C 195.796 82.467,195.683 82.390,195.447 79.129 C 195.164 75.235,196.341 74.080,201.308 73.375 C 202.514 73.204,204.503 72.710,205.728 72.278 C 206.952 71.845,209.523 71.251,211.440 70.958 C 213.357 70.665,215.431 70.214,216.048 69.956 C 216.666 69.698,219.042 69.260,221.329 68.981 C 223.616 68.703,226.218 68.345,227.110 68.187 C 229.354 67.789,231.630 68.033,233.322 68.852 M127.745 158.157 C 124.065 158.321,122.934 158.488,121.882 159.025 C 121.165 159.391,119.659 159.929,118.536 160.220 C 117.413 160.511,116.180 161.042,115.796 161.401 C 115.412 161.759,114.472 162.330,113.709 162.668 C 112.945 163.006,111.946 163.728,111.488 164.271 C 111.031 164.815,110.450 165.260,110.198 165.260 C 109.946 165.260,109.740 165.381,109.740 165.530 C 109.740 165.679,109.297 166.227,108.755 166.748 C 108.213 167.269,107.421 168.361,106.994 169.176 C 106.568 169.991,105.997 170.842,105.725 171.068 C 105.453 171.294,104.985 172.234,104.686 173.158 C 104.386 174.082,103.879 175.276,103.558 175.812 C 102.875 176.954,102.392 179.534,102.100 183.604 C 101.984 185.211,101.684 187.351,101.432 188.359 C 100.893 190.516,100.845 192.476,101.302 193.678 C 101.483 194.153,101.839 196.909,102.093 199.803 C 102.354 202.774,102.791 205.693,103.095 206.509 C 103.392 207.304,103.985 209.099,104.412 210.498 C 104.839 211.897,105.466 213.431,105.805 213.907 C 106.143 214.383,106.577 215.343,106.769 216.041 C 106.961 216.738,107.469 217.688,107.896 218.151 C 108.324 218.615,108.951 219.505,109.288 220.130 C 109.626 220.755,110.013 221.348,110.148 221.449 C 110.282 221.549,110.739 222.101,111.163 222.676 C 112.478 224.457,117.976 228.896,118.868 228.896 C 119.121 228.896,120.275 229.367,121.433 229.943 L 123.539 230.990 129.383 230.972 C 134.885 230.955,135.352 230.905,137.360 230.113 C 138.532 229.650,140.514 229.129,141.763 228.956 C 143.012 228.783,144.755 228.273,145.637 227.822 C 146.519 227.371,147.828 226.910,148.545 226.797 C 150.260 226.527,152.318 225.351,152.839 224.344 C 153.169 223.705,153.237 217.990,153.169 196.591 L 153.084 169.643 151.948 167.541 C 151.323 166.385,150.593 165.268,150.325 165.060 C 150.057 164.851,149.297 164.190,148.636 163.590 C 146.153 161.337,145.127 160.678,143.403 160.229 C 142.428 159.975,141.046 159.462,140.331 159.090 C 138.670 158.224,134.007 157.879,127.745 158.157 M139.022 159.501 C 140.066 160.113,143.255 161.039,144.319 161.039 C 144.343 161.039,144.937 161.550,145.639 162.175 C 146.341 162.800,147.137 163.311,147.407 163.311 C 147.677 163.312,148.042 163.640,148.218 164.041 C 148.395 164.442,148.937 164.959,149.423 165.191 C 150.054 165.491,150.442 166.050,150.778 167.140 C 151.037 167.981,151.552 169.248,151.923 169.955 C 152.590 171.227,152.597 171.541,152.597 197.642 L 152.597 224.042 151.817 224.339 C 151.388 224.502,150.767 224.910,150.437 225.246 C 150.092 225.598,148.776 226.080,147.333 226.384 C 145.955 226.674,144.421 227.207,143.924 227.569 C 143.298 228.023,142.069 228.340,139.935 228.596 C 138.156 228.809,136.141 229.282,135.173 229.712 C 132.040 231.107,125.887 231.058,123.111 229.617 C 122.454 229.275,121.145 228.812,120.204 228.587 C 119.263 228.363,118.362 227.938,118.203 227.645 C 118.043 227.351,117.352 226.818,116.668 226.461 C 115.983 226.104,115.057 225.428,114.610 224.960 C 114.164 224.491,113.501 223.954,113.136 223.767 C 112.772 223.580,112.264 223.014,112.007 222.509 C 111.750 222.004,111.161 221.226,110.699 220.779 C 110.237 220.333,109.666 219.487,109.430 218.900 C 109.195 218.313,108.737 217.691,108.413 217.517 C 108.071 217.334,107.592 216.376,107.270 215.228 C 106.966 214.142,106.450 213.087,106.125 212.884 C 105.574 212.540,105.187 211.226,104.713 208.093 C 104.616 207.454,104.221 206.592,103.834 206.177 C 102.205 204.428,102.055 179.067,103.664 177.458 C 104.506 176.616,104.782 175.970,105.043 174.230 C 105.185 173.284,105.535 172.435,105.914 172.119 C 106.262 171.829,106.893 170.933,107.315 170.130 C 108.585 167.709,112.858 163.619,114.776 162.986 C 115.398 162.781,116.100 162.337,116.337 161.999 C 116.744 161.418,119.861 160.390,121.215 160.390 C 121.558 160.390,122.366 160.064,123.011 159.665 C 125.496 158.129,136.489 158.017,139.022 159.501 " stroke="none" fill="#9c9c9c" fill-rule="evenodd"></path><path id="path3" d="M169.968 68.149 C 169.391 68.276,170.185 68.366,171.916 68.369 C 173.569 68.373,174.485 68.277,174.026 68.148 C 173.015 67.866,171.248 67.866,169.968 68.149 M227.597 68.160 C 226.868 68.299,227.485 68.371,229.320 68.360 C 230.893 68.351,231.842 68.249,231.431 68.133 C 230.493 67.869,229.070 67.878,227.597 68.160 M166.315 68.730 C 166.627 68.812,167.139 68.812,167.451 68.730 C 167.764 68.649,167.508 68.582,166.883 68.582 C 166.258 68.582,166.002 68.649,166.315 68.730 M163.559 69.061 C 163.963 69.138,164.547 69.136,164.858 69.054 C 165.168 68.973,164.838 68.909,164.123 68.913 C 163.409 68.917,163.155 68.983,163.559 69.061 M221.185 69.055 C 221.498 69.137,222.009 69.137,222.321 69.055 C 222.634 68.973,222.378 68.906,221.753 68.906 C 221.128 68.906,220.873 68.973,221.185 69.055 M158.442 69.968 C 157.972 70.236,157.835 70.432,158.117 70.432 C 158.385 70.432,158.969 70.223,159.416 69.968 C 159.885 69.699,160.022 69.504,159.740 69.504 C 159.472 69.504,158.888 69.712,158.442 69.968 M216.071 69.956 C 214.758 70.557,215.546 70.580,216.927 69.980 C 217.528 69.719,217.800 69.507,217.532 69.508 C 217.265 69.509,216.607 69.711,216.071 69.956 M234.761 70.169 C 234.964 70.548,235.244 71.534,235.384 72.361 C 235.600 73.641,235.644 73.706,235.676 72.798 C 235.713 71.759,234.963 69.481,234.583 69.481 C 234.478 69.481,234.559 69.791,234.761 70.169 M152.354 71.328 C 152.666 71.409,153.178 71.409,153.490 71.328 C 153.803 71.246,153.547 71.179,152.922 71.179 C 152.297 71.179,152.041 71.246,152.354 71.328 M149.026 71.916 C 147.989 72.508,148.211 72.511,149.838 71.925 C 150.552 71.668,150.844 71.456,150.487 71.454 C 150.130 71.453,149.472 71.660,149.026 71.916 M205.032 72.460 C 203.604 72.990,202.878 73.350,203.418 73.260 C 204.590 73.066,208.818 71.469,208.117 71.485 C 207.849 71.492,206.461 71.930,205.032 72.460 M141.234 73.864 C 139.718 74.447,140.373 74.459,142.208 73.880 C 143.011 73.627,143.377 73.421,143.019 73.423 C 142.662 73.425,141.859 73.623,141.234 73.864 M138.780 74.827 C 138.433 75.090,138.295 75.304,138.474 75.304 C 138.653 75.304,139.082 75.090,139.429 74.827 C 139.776 74.565,139.913 74.351,139.734 74.351 C 139.556 74.351,139.126 74.565,138.780 74.827 M196.672 74.701 C 196.360 74.883,195.878 75.500,195.601 76.071 C 195.147 77.009,195.147 77.049,195.601 76.480 C 195.878 76.134,196.104 75.736,196.104 75.598 C 196.104 75.459,196.506 75.127,196.997 74.861 C 197.488 74.595,197.744 74.375,197.565 74.374 C 197.386 74.372,196.985 74.519,196.672 74.701 M137.755 78.734 C 137.758 79.627,137.821 79.953,137.895 79.460 C 137.970 78.966,137.968 78.236,137.891 77.836 C 137.814 77.437,137.753 77.841,137.755 78.734 M195.485 79.545 C 195.474 80.349,195.593 81.209,195.749 81.456 C 195.925 81.733,195.975 81.297,195.880 80.320 C 195.666 78.121,195.510 77.814,195.485 79.545 M145.536 82.691 C 145.848 82.773,146.360 82.773,146.672 82.691 C 146.985 82.610,146.729 82.543,146.104 82.543 C 145.479 82.543,145.223 82.610,145.536 82.691 M203.003 82.691 C 203.316 82.773,203.827 82.773,204.140 82.691 C 204.452 82.610,204.196 82.543,203.571 82.543 C 202.946 82.543,202.691 82.610,203.003 82.691 M205.195 83.023 C 205.463 83.121,205.938 83.424,206.250 83.697 C 206.591 83.994,206.818 84.046,206.818 83.828 C 206.818 83.410,205.768 82.780,205.135 82.818 C 204.840 82.836,204.859 82.899,205.195 83.023 M208.943 86.120 C 209.065 86.522,209.298 86.993,209.461 87.168 C 209.624 87.342,209.594 87.014,209.393 86.437 C 208.981 85.258,208.602 84.990,208.943 86.120 M210.104 88.644 C 210.596 90.098,210.873 90.380,210.575 89.123 C 210.448 88.588,210.204 88.007,210.033 87.832 C 209.862 87.658,209.894 88.023,210.104 88.644 M153.019 91.558 C 153.019 92.541,153.080 92.942,153.155 92.451 C 153.229 91.960,153.229 91.157,153.155 90.666 C 153.080 90.175,153.019 90.576,153.019 91.558 M210.826 93.669 C 210.827 95.097,210.884 95.641,210.952 94.878 C 211.021 94.114,211.020 92.945,210.950 92.280 C 210.881 91.615,210.824 92.240,210.826 93.669 M131.331 145.171 C 130.081 145.327,128.839 145.522,128.571 145.604 C 128.036 145.769,131.747 145.499,135.065 145.131 L 137.175 144.897 135.390 144.892 C 134.407 144.890,132.581 145.015,131.331 145.171 M141.883 145.103 C 145.905 145.590,148.653 145.776,147.240 145.466 C 146.526 145.309,144.554 145.106,142.857 145.014 C 140.373 144.880,140.183 144.897,141.883 145.103 M271.123 145.159 C 267.681 145.834,269.269 145.810,273.701 145.119 L 275.162 144.892 273.864 144.884 C 273.149 144.880,271.916 145.004,271.123 145.159 M279.870 145.143 C 281.209 145.313,283.174 145.744,284.235 146.102 C 285.297 146.460,286.319 146.742,286.508 146.729 C 287.747 146.642,281.871 145.088,279.870 144.974 L 277.435 144.835 279.870 145.143 M152.597 145.400 C 152.597 145.638,151.902 145.802,150.731 145.839 L 148.864 145.899 150.615 146.020 C 152.249 146.133,153.328 145.753,152.819 145.244 C 152.697 145.121,152.597 145.192,152.597 145.400 M125.000 146.115 C 124.476 146.290,124.821 146.320,125.974 146.201 C 126.956 146.099,127.821 145.963,127.895 145.898 C 128.155 145.670,125.804 145.846,125.000 146.115 M265.422 146.429 C 264.538 146.653,264.523 146.678,265.260 146.692 C 265.706 146.701,266.364 146.582,266.721 146.429 C 267.521 146.085,266.774 146.085,265.422 146.429 M260.760 147.126 C 260.160 147.298,259.727 147.497,259.797 147.568 C 259.867 147.638,260.651 147.497,261.537 147.253 C 262.424 147.010,262.857 146.811,262.500 146.812 C 262.143 146.812,261.360 146.953,260.760 147.126 M118.019 147.403 C 117.610 147.578,117.550 147.682,117.857 147.682 C 118.125 147.682,118.636 147.556,118.994 147.403 C 119.403 147.227,119.463 147.124,119.156 147.124 C 118.888 147.124,118.377 147.249,118.019 147.403 M289.448 147.458 C 289.805 147.656,290.324 147.980,290.600 148.179 C 290.877 148.377,290.759 148.210,290.339 147.808 C 289.918 147.407,289.400 147.082,289.186 147.088 C 288.973 147.093,289.091 147.260,289.448 147.458 M115.747 148.255 L 114.773 148.729 115.747 148.530 C 116.282 148.420,116.860 148.195,117.029 148.029 C 117.476 147.592,116.899 147.693,115.747 148.255 M257.955 148.226 C 257.143 148.617,257.116 148.662,257.792 148.496 C 258.712 148.272,259.746 147.745,259.253 147.752 C 259.075 147.754,258.490 147.968,257.955 148.226 M293.994 150.181 C 294.529 150.699,295.296 151.463,295.698 151.879 C 296.100 152.294,296.429 152.493,296.429 152.321 C 296.429 152.149,295.662 151.385,294.724 150.623 C 293.787 149.861,293.458 149.662,293.994 150.181 M250.831 150.173 C 250.484 150.435,250.347 150.649,250.525 150.649 C 250.704 150.649,251.134 150.435,251.480 150.173 C 251.827 149.910,251.964 149.696,251.786 149.696 C 251.607 149.696,251.177 149.910,250.831 150.173 M105.111 152.245 C 103.813 153.077,103.574 153.414,104.708 152.813 C 106.068 152.092,106.714 151.630,106.331 151.652 C 106.153 151.662,105.604 151.929,105.111 152.245 M243.994 152.273 C 243.458 152.628,243.166 152.918,243.344 152.918 C 243.523 152.918,244.107 152.628,244.643 152.273 C 245.179 151.918,245.471 151.628,245.292 151.628 C 245.114 151.628,244.529 151.918,243.994 152.273 M235.719 153.602 C 235.712 154.385,236.946 155.392,237.380 154.958 C 237.632 154.705,237.567 154.620,237.148 154.657 C 236.820 154.686,236.380 154.352,236.144 153.896 C 235.879 153.384,235.722 153.276,235.719 153.602 M101.430 154.255 C 101.090 154.631,100.264 155.219,99.594 155.561 C 98.925 155.902,98.377 156.255,98.377 156.344 C 98.377 156.434,98.925 156.220,99.594 155.870 C 100.957 155.158,102.875 153.571,102.374 153.571 C 102.195 153.571,101.770 153.879,101.430 154.255 M127.527 158.032 C 128.471 158.098,129.932 158.097,130.774 158.030 C 131.616 157.964,130.844 157.910,129.058 157.911 C 127.273 157.912,126.584 157.966,127.527 158.032 M133.366 158.028 C 133.950 158.100,134.826 158.098,135.314 158.024 C 135.802 157.950,135.325 157.891,134.253 157.893 C 133.182 157.895,132.783 157.955,133.366 158.028 M94.298 159.468 C 93.346 160.494,93.346 160.494,94.223 159.874 C 94.707 159.533,95.177 159.071,95.268 158.847 C 95.520 158.231,95.339 158.347,94.298 159.468 M140.345 159.091 C 141.912 159.931,142.361 159.930,140.982 159.090 C 140.398 158.733,139.742 158.442,139.526 158.442 C 139.310 158.442,139.678 158.734,140.345 159.091 M119.318 159.740 C 118.909 159.916,118.849 160.019,119.156 160.019 C 119.424 160.019,119.935 159.894,120.292 159.740 C 120.702 159.564,120.762 159.461,120.455 159.461 C 120.187 159.461,119.675 159.587,119.318 159.740 M144.834 160.471 C 144.909 160.515,145.479 160.990,146.100 161.526 C 147.059 162.353,147.133 162.377,146.586 161.688 C 145.841 160.749,145.413 160.402,144.995 160.395 C 144.831 160.392,144.759 160.426,144.834 160.471 M115.160 161.554 C 114.659 161.985,114.367 162.333,114.511 162.327 C 114.871 162.312,116.356 161.053,116.199 160.896 C 116.129 160.826,115.661 161.122,115.160 161.554 M253.734 161.539 C 252.127 161.952,251.080 162.301,251.407 162.314 C 251.734 162.327,253.195 162.029,254.654 161.653 C 256.753 161.111,257.948 160.999,260.390 161.117 C 262.086 161.198,263.036 161.159,262.500 161.028 C 260.554 160.555,256.681 160.780,253.734 161.539 M263.961 161.688 C 264.229 161.861,264.667 162.003,264.935 162.003 C 265.368 162.003,265.368 161.968,264.935 161.688 C 264.667 161.515,264.229 161.374,263.961 161.374 C 263.528 161.374,263.528 161.409,263.961 161.688 M267.857 162.570 C 268.125 162.669,268.636 162.885,268.994 163.049 C 269.632 163.343,269.633 163.339,269.013 162.843 C 268.666 162.565,268.155 162.349,267.876 162.363 C 267.439 162.385,267.436 162.414,267.857 162.570 M246.266 163.060 C 245.370 163.379,243.810 164.288,244.165 164.284 C 244.249 164.283,245.195 163.922,246.266 163.480 C 248.179 162.692,248.179 162.380,246.266 163.060 M110.945 164.347 C 110.446 164.849,110.165 165.260,110.320 165.260 C 110.657 165.260,112.183 163.683,111.987 163.536 C 111.912 163.480,111.443 163.845,110.945 164.347 M88.551 165.260 C 87.910 165.974,87.470 166.558,87.574 166.558 C 87.677 166.558,88.302 165.974,88.961 165.260 C 89.620 164.545,90.060 163.961,89.938 163.961 C 89.817 163.961,89.192 164.545,88.551 165.260 M271.104 164.431 C 271.104 164.521,271.542 164.820,272.078 165.097 C 272.614 165.374,273.052 165.528,273.052 165.439 C 273.052 165.349,272.614 165.050,272.078 164.773 C 271.542 164.496,271.104 164.342,271.104 164.431 M302.953 165.097 C 302.943 165.276,303.138 166.153,303.386 167.045 C 303.657 168.018,303.840 168.343,303.842 167.857 C 303.847 167.080,302.991 164.426,302.953 165.097 M150.977 165.703 C 150.972 166.125,152.682 169.180,152.836 169.025 C 152.910 168.952,152.522 168.111,151.975 167.157 C 151.428 166.203,150.979 165.548,150.977 165.703 M107.139 168.263 C 106.785 168.843,106.495 169.452,106.495 169.616 C 106.493 169.986,106.539 169.925,107.398 168.425 C 108.252 166.934,108.033 166.797,107.139 168.263 M85.573 169.075 C 84.872 169.972,84.816 170.122,85.360 169.646 C 86.011 169.078,86.870 167.857,86.619 167.857 C 86.568 167.857,86.097 168.405,85.573 169.075 M303.971 170.455 C 303.971 171.080,304.038 171.335,304.120 171.023 C 304.202 170.710,304.202 170.199,304.120 169.886 C 304.038 169.574,303.971 169.830,303.971 170.455 M105.386 171.129 C 104.924 171.678,104.555 172.372,104.566 172.671 C 104.579 173.021,104.702 172.926,104.910 172.403 C 105.088 171.956,105.543 171.262,105.920 170.861 C 106.298 170.459,106.521 170.130,106.417 170.130 C 106.312 170.130,105.848 170.579,105.386 171.129 M152.997 171.104 C 152.997 171.729,153.064 171.985,153.146 171.672 C 153.228 171.360,153.228 170.848,153.146 170.536 C 153.064 170.223,152.997 170.479,152.997 171.104 M275.984 170.503 C 275.979 170.618,276.338 171.349,276.782 172.126 C 277.226 172.903,277.591 173.393,277.592 173.214 C 277.594 172.855,276.000 170.166,275.984 170.503 M304.309 173.377 C 304.309 174.180,304.373 174.509,304.450 174.107 C 304.527 173.705,304.527 173.048,304.450 172.646 C 304.373 172.244,304.309 172.573,304.309 173.377 M83.243 172.976 C 82.740 173.309,81.730 175.345,81.957 175.571 C 82.059 175.674,82.143 175.608,82.143 175.424 C 82.143 175.241,82.504 174.559,82.945 173.909 C 83.386 173.259,83.715 172.730,83.675 172.732 C 83.636 172.735,83.442 172.845,83.243 172.976 M277.934 175.369 C 277.927 175.482,278.136 176.066,278.396 176.667 C 278.657 177.268,278.871 177.541,278.872 177.273 C 278.873 176.805,277.957 174.946,277.934 175.369 M80.841 177.029 C 80.487 177.610,80.208 178.304,80.222 178.571 C 80.243 179.004,80.266 179.004,80.423 178.571 C 80.521 178.304,80.886 177.610,81.236 177.029 C 81.585 176.449,81.784 175.974,81.678 175.974 C 81.571 175.974,81.194 176.449,80.841 177.029 M304.682 182.792 C 304.682 186.453,304.730 187.950,304.788 186.120 C 304.845 184.290,304.845 181.295,304.788 179.464 C 304.730 177.634,304.682 179.131,304.682 182.792 M279.130 179.545 C 279.230 180.528,279.364 181.392,279.429 181.466 C 279.670 181.746,279.488 179.031,279.224 178.409 C 279.052 178.005,279.017 178.434,279.130 179.545 M78.811 183.236 C 77.596 185.934,77.675 186.400,78.907 183.797 C 79.448 182.653,79.849 181.610,79.799 181.480 C 79.749 181.350,79.304 182.140,78.811 183.236 M102.030 182.305 C 102.034 183.019,102.100 183.273,102.178 182.870 C 102.255 182.466,102.252 181.881,102.171 181.571 C 102.090 181.260,102.026 181.591,102.030 182.305 M279.634 183.117 C 279.634 183.920,279.697 184.249,279.775 183.847 C 279.852 183.446,279.852 182.788,279.775 182.386 C 279.697 181.985,279.634 182.313,279.634 183.117 M101.349 187.166 C 101.126 188.375,101.003 189.423,101.075 189.495 C 101.278 189.698,102.041 185.831,101.888 185.373 C 101.814 185.150,101.571 185.957,101.349 187.166 M280.000 193.019 C 280.000 195.698,280.051 196.751,280.112 195.359 C 280.173 193.966,280.172 191.775,280.111 190.488 C 280.049 189.202,280.000 190.341,280.000 193.019 M77.355 190.422 C 77.358 191.136,77.425 191.390,77.502 190.986 C 77.580 190.583,77.577 189.998,77.496 189.688 C 77.415 189.377,77.351 189.708,77.355 190.422 M77.030 193.019 C 77.034 193.734,77.100 193.988,77.178 193.584 C 77.255 193.180,77.252 192.596,77.171 192.285 C 77.090 191.975,77.026 192.305,77.030 193.019 M101.015 193.669 C 101.016 194.026,101.224 195.195,101.479 196.266 L 101.941 198.214 101.752 196.295 C 101.554 194.276,101.015 192.356,101.015 193.669 M76.288 197.138 C 75.866 199.634,76.041 204.737,76.620 206.818 C 76.922 207.907,76.928 207.893,76.771 206.494 C 76.275 202.082,76.238 199.819,76.624 197.560 C 76.854 196.216,76.963 195.036,76.866 194.939 C 76.769 194.842,76.509 195.832,76.288 197.138 M102.036 201.299 C 102.036 202.102,102.100 202.431,102.177 202.029 C 102.255 201.627,102.255 200.970,102.177 200.568 C 102.100 200.166,102.036 200.495,102.036 201.299 M102.944 207.143 C 102.943 207.411,103.157 207.913,103.419 208.260 C 104.026 209.062,104.019 208.535,103.409 207.468 C 103.140 206.997,102.945 206.860,102.944 207.143 M304.371 222.403 C 304.371 230.706,304.413 234.103,304.464 229.951 C 304.515 225.800,304.515 219.006,304.464 214.854 C 304.413 210.702,304.371 214.099,304.371 222.403 M103.942 209.416 C 103.942 209.683,104.067 210.195,104.221 210.552 C 104.397 210.961,104.500 211.021,104.500 210.714 C 104.500 210.446,104.374 209.935,104.221 209.578 C 104.045 209.169,103.942 209.109,103.942 209.416 M106.818 217.157 C 106.818 217.320,107.060 217.653,107.355 217.899 C 107.650 218.144,108.305 219.002,108.810 219.805 C 109.315 220.609,109.731 221.152,109.734 221.011 C 109.737 220.871,109.491 220.360,109.186 219.875 C 108.396 218.617,106.818 216.806,106.818 217.157 M79.159 218.019 C 79.323 218.377,79.539 218.888,79.638 219.156 C 79.794 219.577,79.822 219.574,79.844 219.137 C 79.859 218.858,79.643 218.347,79.365 218.000 C 78.868 217.380,78.865 217.381,79.159 218.019 M80.010 220.942 C 80.137 221.477,80.380 222.058,80.551 222.233 C 80.722 222.407,80.690 222.042,80.480 221.421 C 79.989 219.967,79.712 219.685,80.010 220.942 M113.636 225.487 C 114.242 226.112,114.811 226.623,114.900 226.623 C 114.989 226.623,114.567 226.112,113.961 225.487 C 113.355 224.862,112.787 224.351,112.697 224.351 C 112.608 224.351,113.031 224.862,113.636 225.487 M152.302 225.127 C 152.095 225.376,151.488 225.761,150.953 225.983 C 150.417 226.205,150.043 226.450,150.122 226.529 C 150.331 226.738,152.088 225.776,152.580 225.184 C 152.812 224.904,152.929 224.675,152.839 224.675 C 152.750 224.675,152.508 224.879,152.302 225.127 M279.689 234.091 C 279.689 239.359,279.734 241.514,279.788 238.880 C 279.843 236.246,279.843 231.936,279.788 229.302 C 279.734 226.668,279.689 228.823,279.689 234.091 M116.071 227.411 C 116.607 227.875,117.338 228.413,117.695 228.605 C 118.052 228.797,117.906 228.574,117.370 228.109 C 116.834 227.644,116.104 227.107,115.747 226.915 C 115.390 226.723,115.536 226.946,116.071 227.411 M145.865 227.661 C 145.109 228.048,144.547 228.421,144.616 228.491 C 144.685 228.560,145.450 228.248,146.316 227.797 C 147.181 227.347,147.744 226.974,147.565 226.968 C 147.386 226.962,146.622 227.274,145.865 227.661 M178.026 229.870 C 178.026 231.031,178.085 231.506,178.157 230.925 C 178.229 230.345,178.229 229.395,178.157 228.815 C 178.085 228.235,178.026 228.709,178.026 229.870 M120.942 230.024 C 121.656 230.464,122.458 230.828,122.725 230.834 C 122.991 230.840,122.523 230.479,121.684 230.032 C 119.727 228.990,119.254 228.985,120.942 230.024 M137.500 230.026 C 134.956 231.035,135.572 231.035,138.474 230.027 C 139.724 229.593,140.455 229.241,140.097 229.246 C 139.740 229.251,138.571 229.602,137.500 230.026 M84.740 230.059 C 84.740 230.176,85.179 230.771,85.714 231.381 C 86.250 231.991,86.688 232.395,86.688 232.278 C 86.688 232.162,86.250 231.567,85.714 230.957 C 85.179 230.347,84.740 229.943,84.740 230.059 M124.273 231.074 C 124.677 231.151,125.262 231.148,125.572 231.067 C 125.882 230.986,125.552 230.922,124.838 230.926 C 124.123 230.930,123.869 230.996,124.273 231.074 M133.198 231.068 C 133.511 231.150,134.022 231.150,134.334 231.068 C 134.647 230.986,134.391 230.919,133.766 230.919 C 133.141 230.919,132.886 230.986,133.198 231.068 M128.174 231.407 C 128.938 231.476,130.107 231.475,130.772 231.405 C 131.436 231.335,130.812 231.279,129.383 231.280 C 127.955 231.281,127.411 231.338,128.174 231.407 M178.270 233.144 C 178.282 233.575,178.425 234.221,178.587 234.578 C 178.792 235.030,178.821 234.834,178.683 233.929 C 178.453 232.421,178.237 232.009,178.270 233.144 M88.571 234.929 C 88.942 235.636,89.893 236.548,90.031 236.329 C 90.074 236.259,89.684 235.763,89.163 235.227 C 88.520 234.565,88.330 234.470,88.571 234.929 M178.926 235.552 C 178.915 235.731,179.113 236.534,179.366 237.338 C 179.620 238.141,179.825 238.506,179.824 238.149 C 179.821 237.472,178.960 234.984,178.926 235.552 M153.408 237.985 C 153.518 238.163,153.928 238.476,154.320 238.682 C 155.028 239.053,155.028 239.051,154.414 238.359 C 153.794 237.661,153.033 237.378,153.408 237.985 M92.711 239.049 C 92.950 239.670,94.456 240.717,94.725 240.448 C 94.829 240.344,94.763 240.260,94.579 240.260 C 94.395 240.260,93.854 239.870,93.377 239.393 C 92.900 238.916,92.601 238.761,92.711 239.049 M154.925 239.610 C 154.942 240.454,155.453 241.840,155.464 241.071 C 155.470 240.714,155.348 240.130,155.195 239.773 C 155.024 239.375,154.919 239.312,154.925 239.610 M303.971 240.584 C 303.971 241.209,304.038 241.465,304.120 241.153 C 304.202 240.840,304.202 240.329,304.120 240.016 C 304.038 239.704,303.971 239.959,303.971 240.584 M235.434 240.687 C 235.383 241.743,234.945 242.683,233.969 243.831 L 233.279 244.643 234.146 243.880 C 235.202 242.951,235.817 241.557,235.623 240.534 C 235.494 239.858,235.473 239.875,235.434 240.687 M141.156 240.771 C 141.053 240.873,140.116 241.308,139.072 241.737 C 138.029 242.166,137.394 242.520,137.662 242.524 C 138.237 242.532,142.209 240.646,141.694 240.609 C 141.500 240.596,141.258 240.668,141.156 240.771 M95.851 241.731 C 96.336 242.242,96.792 242.595,96.863 242.515 C 96.934 242.435,96.537 242.017,95.980 241.586 L 94.968 240.803 95.851 241.731 M97.899 242.970 C 99.447 244.027,100.325 244.544,100.325 244.399 C 100.325 244.193,97.812 242.532,97.500 242.532 C 97.367 242.532,97.546 242.729,97.899 242.970 M133.117 243.537 C 130.649 244.691,131.423 244.582,134.253 243.377 C 135.325 242.921,135.982 242.549,135.714 242.549 C 135.446 242.550,134.278 242.995,133.117 243.537 M178.953 243.548 C 178.421 244.205,178.352 244.420,178.719 244.279 C 179.214 244.089,180.042 242.903,179.815 242.710 C 179.756 242.659,179.368 243.037,178.953 243.548 M211.062 243.669 C 211.062 243.847,211.271 244.359,211.526 244.805 C 211.781 245.252,211.990 245.471,211.990 245.292 C 211.990 245.114,211.781 244.602,211.526 244.156 C 211.271 243.709,211.062 243.490,211.062 243.669 M101.948 244.968 C 103.430 245.538,104.014 245.530,102.760 244.956 C 102.224 244.711,101.567 244.514,101.299 244.520 C 101.031 244.525,101.323 244.727,101.948 244.968 M176.136 244.805 C 175.238 245.034,175.225 245.056,175.974 245.086 C 176.420 245.105,177.005 244.978,177.273 244.805 C 177.825 244.448,177.540 244.448,176.136 244.805 M123.864 245.953 C 123.328 246.199,123.109 246.401,123.377 246.402 C 123.644 246.404,124.229 246.197,124.675 245.942 C 125.702 245.355,125.153 245.363,123.864 245.953 M157.792 245.717 C 157.792 246.500,159.165 246.773,162.580 246.671 L 166.071 246.566 162.526 246.498 C 159.751 246.444,158.850 246.312,158.386 245.891 C 158.051 245.588,157.792 245.513,157.792 245.717 M169.805 245.982 L 168.019 246.420 169.856 246.263 C 170.866 246.176,172.035 245.968,172.454 245.801 L 173.214 245.496 172.403 245.520 C 171.956 245.533,170.787 245.741,169.805 245.982 M223.864 245.948 C 222.356 246.265,222.173 246.359,223.052 246.362 C 223.677 246.364,224.919 246.178,225.812 245.949 C 227.901 245.412,226.414 245.411,223.864 245.948 M294.108 245.611 C 294.022 245.697,293.157 245.899,292.187 246.060 C 290.862 246.280,290.706 246.354,291.558 246.359 C 292.979 246.368,296.328 245.549,295.103 245.493 C 294.642 245.472,294.194 245.525,294.108 245.611 M105.925 246.652 C 106.238 246.734,106.749 246.734,107.062 246.652 C 107.374 246.571,107.119 246.504,106.494 246.504 C 105.869 246.504,105.613 246.571,105.925 246.652 M215.675 246.668 C 216.529 246.735,217.844 246.734,218.597 246.666 C 219.351 246.598,218.653 246.543,217.045 246.544 C 215.438 246.545,214.822 246.601,215.675 246.668 M284.182 246.668 C 285.035 246.735,286.350 246.734,287.104 246.666 C 287.857 246.598,287.159 246.543,285.552 246.544 C 283.945 246.545,283.328 246.601,284.182 246.668 M108.685 246.982 C 109.087 247.060,109.744 247.060,110.146 246.982 C 110.548 246.905,110.219 246.842,109.416 246.842 C 108.612 246.842,108.283 246.905,108.685 246.982 M117.943 246.986 C 118.436 247.061,119.167 247.059,119.566 246.982 C 119.965 246.905,119.562 246.844,118.669 246.846 C 117.776 246.849,117.449 246.912,117.943 246.986 M112.906 247.313 C 113.486 247.385,114.436 247.385,115.016 247.313 C 115.597 247.241,115.122 247.182,113.961 247.182 C 112.800 247.182,112.325 247.241,112.906 247.313 " stroke="none" fill="#848484" fill-rule="evenodd"></path><path id="path4" d="M165.909 68.836 C 163.141 69.175,160.438 69.616,159.903 69.817 C 158.256 70.434,155.436 71.053,152.724 71.393 C 151.301 71.572,149.428 72.022,148.562 72.393 C 147.697 72.764,146.095 73.194,145.004 73.350 C 138.802 74.233,137.607 75.223,137.989 79.159 C 138.290 82.253,138.215 82.206,143.247 82.440 C 147.808 82.652,150.602 83.705,151.145 85.416 C 151.245 85.732,151.722 86.549,152.206 87.232 L 153.084 88.474 153.176 116.429 C 153.235 134.632,153.153 144.684,152.940 145.244 C 152.539 146.299,151.885 146.331,146.094 145.576 C 140.692 144.872,135.635 144.931,129.545 145.767 C 126.778 146.148,123.516 146.595,122.298 146.762 C 119.943 147.085,117.588 147.679,117.035 148.090 C 116.851 148.226,115.609 148.566,114.275 148.844 C 112.942 149.122,111.474 149.627,111.014 149.967 C 110.554 150.307,109.459 150.824,108.579 151.115 C 106.380 151.844,102.275 153.910,101.332 154.761 C 100.904 155.148,99.990 155.718,99.303 156.028 C 98.615 156.338,98.052 156.712,98.052 156.859 C 98.052 157.006,97.637 157.341,97.131 157.603 C 96.624 157.865,95.657 158.562,94.982 159.153 C 92.741 161.115,86.688 167.504,86.688 167.908 C 86.688 168.046,86.270 168.639,85.758 169.226 C 85.246 169.812,84.718 170.657,84.584 171.104 C 84.450 171.550,84.020 172.354,83.628 172.890 C 82.150 174.909,80.442 178.452,80.035 180.344 C 79.802 181.423,79.248 183.109,78.804 184.091 C 78.179 185.471,77.871 187.056,77.448 191.071 C 77.147 193.929,76.769 196.851,76.607 197.565 C 76.085 199.882,76.574 207.181,77.446 210.073 C 77.528 210.345,77.738 211.696,77.913 213.075 C 78.088 214.454,78.538 216.204,78.913 216.963 C 79.289 217.723,79.808 219.148,80.067 220.130 C 80.327 221.112,80.798 222.281,81.114 222.727 C 81.430 223.174,81.962 224.269,82.296 225.162 C 82.630 226.055,83.089 226.932,83.317 227.110 C 83.545 227.289,84.098 228.173,84.546 229.076 C 84.993 229.978,85.659 230.987,86.024 231.318 C 86.389 231.648,86.688 232.071,86.688 232.258 C 86.688 233.175,96.498 242.532,97.459 242.532 C 97.631 242.532,98.410 242.971,99.188 243.506 C 99.967 244.042,100.886 244.481,101.230 244.481 C 101.575 244.481,102.717 244.916,103.769 245.449 C 107.702 247.439,119.318 247.552,124.859 245.653 C 126.120 245.221,128.020 244.764,129.079 244.637 C 130.139 244.511,131.981 243.985,133.171 243.470 C 134.362 242.954,135.750 242.529,136.256 242.525 C 136.762 242.521,138.052 242.145,139.123 241.690 C 140.195 241.234,141.922 240.653,142.962 240.397 C 144.002 240.141,145.609 239.574,146.534 239.138 C 147.458 238.701,149.018 238.132,150.000 237.874 C 150.982 237.615,151.932 237.365,152.110 237.318 C 153.610 236.923,155.087 238.752,155.571 241.602 C 155.885 243.449,156.081 243.816,157.417 245.049 L 158.911 246.429 163.235 246.429 C 165.629 246.429,168.605 246.224,169.900 245.971 C 171.187 245.720,173.594 245.263,175.250 244.956 C 180.099 244.056,180.886 242.244,178.987 236.347 L 178.103 233.604 177.932 152.435 C 177.792 86.687,177.679 71.112,177.337 70.455 C 176.271 68.406,173.099 67.957,165.909 68.836 M227.760 68.384 C 227.224 68.459,224.886 68.746,222.565 69.021 C 220.244 69.296,217.524 69.797,216.521 70.135 C 215.519 70.472,213.400 70.918,211.813 71.125 C 210.227 71.333,207.906 71.866,206.656 72.310 C 205.406 72.753,203.421 73.241,202.246 73.393 C 196.620 74.121,195.243 75.395,195.742 79.410 C 196.125 82.498,195.678 82.233,200.901 82.469 C 205.101 82.659,206.818 83.039,206.818 83.778 C 206.818 83.950,207.012 84.091,207.249 84.091 C 207.909 84.091,208.904 85.352,209.938 87.500 L 210.877 89.448 211.039 166.558 C 211.215 250.273,211.076 244.743,213.030 245.864 C 214.180 246.524,220.119 246.661,223.089 246.096 C 224.051 245.913,226.733 245.468,229.049 245.107 C 233.474 244.418,234.035 244.161,235.017 242.371 C 235.503 241.484,235.560 238.044,235.641 204.413 C 235.740 163.600,235.563 166.926,237.662 166.390 C 238.109 166.276,238.704 165.976,238.985 165.723 C 239.266 165.470,240.581 164.981,241.907 164.637 C 243.233 164.293,244.783 163.776,245.350 163.487 C 245.918 163.199,247.233 162.809,248.272 162.621 C 249.312 162.433,251.769 161.926,253.734 161.494 C 257.854 160.588,260.402 160.517,263.149 161.231 C 264.221 161.509,265.914 161.926,266.912 162.158 C 270.082 162.894,274.909 166.723,275.681 169.114 C 275.890 169.762,276.399 170.877,276.811 171.591 C 277.223 172.305,277.706 173.474,277.885 174.188 C 278.063 174.903,278.489 176.291,278.830 177.273 C 279.897 180.337,279.978 183.121,279.896 213.879 C 279.799 250.210,279.049 246.434,286.364 246.405 C 288.417 246.397,290.755 246.270,291.558 246.124 C 292.362 245.978,294.988 245.542,297.393 245.155 C 301.491 244.496,302.922 243.966,302.922 243.108 C 302.922 242.945,303.126 242.607,303.375 242.358 C 304.303 241.430,305.056 181.047,304.239 173.052 C 303.722 167.988,302.073 160.517,301.157 159.091 C 300.756 158.466,300.153 157.374,299.818 156.664 C 299.005 154.945,293.880 149.863,291.956 148.868 C 288.393 147.026,287.783 146.767,286.983 146.760 C 286.520 146.756,285.312 146.468,284.299 146.120 C 280.097 144.674,275.501 144.628,268.994 145.966 C 267.565 146.260,265.430 146.619,264.249 146.764 C 263.068 146.910,261.023 147.392,259.704 147.835 C 258.384 148.278,256.136 148.891,254.708 149.198 C 253.279 149.504,251.828 149.952,251.483 150.193 C 251.137 150.434,249.749 150.865,248.398 151.150 C 247.047 151.435,245.211 152.021,244.318 152.452 C 243.425 152.884,241.901 153.387,240.931 153.569 C 239.961 153.752,238.664 154.199,238.049 154.561 C 235.549 156.037,235.742 159.380,235.641 113.025 C 235.543 68.011,235.656 70.409,233.589 69.190 C 232.476 68.533,229.564 68.130,227.760 68.384 M174.675 69.488 C 177.372 70.268,177.087 61.155,177.293 153.084 C 177.424 211.229,177.579 234.950,177.836 235.877 C 178.034 236.591,178.420 237.760,178.694 238.474 C 180.027 241.949,178.786 243.971,175.128 244.288 C 173.897 244.395,171.136 244.724,168.994 245.019 C 163.285 245.805,159.422 245.783,158.591 244.961 C 158.233 244.608,157.621 244.099,157.230 243.831 C 156.677 243.453,156.418 242.747,156.067 240.664 C 155.433 236.910,153.445 235.261,151.215 236.640 C 150.620 237.008,149.482 237.406,148.686 237.526 C 147.073 237.768,145.130 238.564,145.130 238.983 C 145.130 239.133,144.582 239.345,143.912 239.453 C 141.163 239.897,139.578 240.354,138.877 240.906 C 138.469 241.227,136.924 241.717,135.444 241.997 C 133.963 242.276,132.286 242.792,131.717 243.144 C 131.079 243.538,129.373 243.969,127.273 244.267 C 125.300 244.547,123.180 245.070,122.240 245.508 C 119.646 246.720,108.474 246.663,105.844 245.426 C 104.862 244.964,103.222 244.336,102.200 244.032 C 101.178 243.728,100.228 243.302,100.089 243.087 C 99.797 242.632,97.587 241.558,96.942 241.558 C 96.701 241.558,96.429 241.270,96.337 240.917 C 96.244 240.564,95.759 240.089,95.258 239.862 C 94.191 239.377,89.485 234.840,89.185 234.007 C 89.072 233.693,88.621 233.273,88.183 233.073 C 87.746 232.874,87.302 232.370,87.198 231.954 C 87.093 231.537,86.660 230.821,86.234 230.362 C 85.809 229.903,85.272 229.057,85.042 228.481 C 84.811 227.906,84.211 226.955,83.707 226.369 C 83.204 225.782,82.792 225.008,82.792 224.648 C 82.792 223.901,81.898 222.025,81.383 221.694 C 81.194 221.572,80.856 220.572,80.631 219.472 C 80.407 218.372,79.933 216.864,79.578 216.122 C 77.745 212.289,77.196 204.323,78.007 193.344 C 78.489 186.819,78.635 186.036,79.740 184.015 C 80.007 183.527,80.424 182.082,80.668 180.805 C 80.911 179.528,81.249 178.394,81.419 178.284 C 81.851 178.004,82.792 176.107,82.792 175.514 C 82.792 175.244,83.201 174.543,83.700 173.956 C 84.199 173.370,84.879 172.269,85.210 171.510 C 85.542 170.751,85.944 170.130,86.104 170.130 C 86.264 170.130,86.649 169.582,86.958 168.912 C 87.267 168.243,89.013 166.166,90.838 164.298 C 92.663 162.429,94.156 160.786,94.156 160.645 C 94.156 160.505,94.371 160.390,94.633 160.390 C 94.896 160.390,95.434 159.951,95.831 159.416 C 96.227 158.880,96.790 158.442,97.082 158.442 C 97.375 158.442,97.968 158.064,98.401 157.602 C 98.834 157.139,99.700 156.548,100.325 156.286 C 100.950 156.025,101.899 155.398,102.435 154.892 C 102.971 154.387,103.942 153.879,104.594 153.764 C 105.246 153.649,105.976 153.316,106.217 153.026 C 106.755 152.377,108.496 151.623,109.456 151.623 C 109.846 151.623,110.684 151.228,111.317 150.746 C 112.153 150.108,113.171 149.756,115.041 149.459 C 116.456 149.233,118.172 148.758,118.854 148.403 C 120.221 147.690,123.225 147.243,129.870 146.762 C 132.281 146.587,134.764 146.295,135.387 146.112 C 136.966 145.649,139.687 145.697,142.370 146.237 C 146.972 147.162,152.421 147.241,153.210 146.394 L 153.896 145.657 153.896 117.512 C 153.896 87.837,153.894 87.767,152.790 86.612 C 152.403 86.207,151.913 85.475,151.700 84.984 C 151.487 84.493,151.168 84.091,150.992 84.091 C 150.816 84.091,150.149 83.632,149.510 83.071 C 148.360 82.061,148.301 82.048,143.808 81.828 C 138.537 81.570,138.751 81.696,138.457 78.664 L 138.230 76.322 139.164 75.958 C 139.677 75.758,140.682 75.319,141.396 74.982 C 142.110 74.646,144.204 74.135,146.049 73.847 C 147.894 73.559,149.870 73.049,150.439 72.713 C 151.120 72.311,152.858 71.939,155.526 71.625 C 158.130 71.318,160.158 70.889,161.201 70.424 C 163.403 69.443,172.366 68.820,174.675 69.488 M232.161 69.480 C 232.841 69.669,233.643 70.236,234.110 70.858 L 234.903 71.916 235.065 113.422 L 235.227 154.928 235.968 155.528 C 236.781 156.185,238.419 155.907,239.164 154.984 C 239.365 154.735,240.680 154.290,242.086 153.996 C 243.492 153.701,244.862 153.276,245.130 153.051 C 245.902 152.404,247.312 151.958,249.613 151.632 C 250.873 151.454,252.124 151.051,252.671 150.647 C 253.278 150.197,254.589 149.814,256.491 149.530 C 258.084 149.292,260.040 148.782,260.838 148.395 C 261.882 147.890,263.797 147.519,267.673 147.071 C 270.634 146.729,273.338 146.298,273.682 146.114 C 274.466 145.695,277.392 145.683,278.896 146.093 C 279.521 146.263,282.002 146.692,284.409 147.047 C 286.817 147.401,288.839 147.849,288.904 148.042 C 289.038 148.444,291.326 149.675,291.939 149.675 C 292.163 149.675,292.716 150.040,293.170 150.485 C 298.472 155.697,298.964 156.286,299.773 158.393 C 300.139 159.348,300.625 160.201,300.852 160.288 C 301.315 160.465,301.747 162.409,302.278 166.691 C 302.475 168.282,302.876 170.182,303.168 170.912 C 303.824 172.549,304.061 198.558,303.654 224.188 L 303.401 240.097 302.424 242.045 L 301.447 243.994 298.532 244.235 C 296.929 244.368,293.791 244.694,291.558 244.960 C 283.534 245.917,283.679 245.914,282.223 245.171 C 280.365 244.223,280.472 246.312,280.535 212.260 C 280.593 180.248,280.499 177.484,279.286 175.764 C 278.926 175.255,278.454 174.034,278.237 173.052 C 278.019 172.070,277.578 170.974,277.257 170.617 C 276.935 170.260,276.478 169.321,276.242 168.532 C 275.967 167.613,275.509 166.920,274.971 166.608 C 274.509 166.339,273.998 165.826,273.835 165.467 C 273.672 165.108,273.045 164.541,272.440 164.208 C 271.836 163.874,271.106 163.324,270.817 162.986 C 270.528 162.647,269.343 162.131,268.182 161.839 C 267.021 161.548,265.830 161.092,265.534 160.827 C 264.209 159.638,254.904 159.684,252.570 160.891 C 252.069 161.150,250.153 161.593,248.313 161.875 C 246.233 162.194,244.637 162.622,244.093 163.008 C 243.310 163.564,242.119 163.943,239.610 164.434 C 239.164 164.522,238.374 164.963,237.855 165.414 C 237.336 165.865,236.764 166.234,236.582 166.234 C 234.994 166.234,235.067 164.491,235.036 203.054 C 235.001 247.294,235.447 243.894,229.628 244.292 C 228.065 244.398,225.106 244.698,223.052 244.957 C 214.960 245.977,214.936 245.977,213.218 244.817 L 211.688 243.785 211.681 166.779 C 211.673 91.076,211.627 87.600,210.622 86.859 C 210.373 86.676,209.910 85.978,209.593 85.308 C 209.276 84.639,208.893 84.091,208.741 84.091 C 208.589 84.091,207.944 83.635,207.309 83.077 C 206.161 82.069,206.125 82.061,201.472 81.850 C 195.984 81.602,196.431 81.863,196.197 78.768 L 196.011 76.305 197.275 75.798 C 197.970 75.520,198.977 75.079,199.513 74.820 C 200.049 74.561,201.906 74.130,203.640 73.864 C 205.374 73.598,207.350 73.089,208.032 72.733 C 208.823 72.321,210.677 71.921,213.159 71.627 C 215.609 71.337,217.645 70.900,218.669 70.445 C 219.877 69.907,221.247 69.663,224.026 69.490 C 229.735 69.134,230.910 69.133,232.161 69.480 M125.325 157.438 C 122.168 157.619,121.340 157.784,119.968 158.509 C 119.075 158.980,117.724 159.529,116.965 159.728 C 116.206 159.928,115.330 160.358,115.017 160.685 C 114.704 161.012,113.767 161.577,112.934 161.940 C 112.101 162.304,111.256 162.906,111.057 163.278 C 110.858 163.650,110.261 164.179,109.731 164.453 C 109.200 164.727,108.766 165.140,108.766 165.369 C 108.766 165.599,108.313 166.122,107.759 166.532 C 107.205 166.942,106.467 167.919,106.120 168.703 C 105.773 169.488,105.381 170.130,105.250 170.130 C 104.880 170.130,103.896 171.942,103.896 172.621 C 103.896 172.954,103.501 173.808,103.017 174.519 C 102.281 175.602,102.073 176.417,101.734 179.545 C 101.511 181.599,101.081 183.937,100.779 184.740 C 99.851 187.209,99.762 194.357,100.619 197.576 C 100.997 198.998,101.507 202.015,101.752 204.280 C 102.095 207.451,102.354 208.618,102.880 209.356 C 103.255 209.883,103.722 211.058,103.917 211.967 C 104.112 212.876,104.593 214.098,104.987 214.683 C 105.381 215.268,105.966 216.441,106.287 217.289 C 106.609 218.137,107.003 218.831,107.164 218.831 C 107.325 218.831,107.819 219.547,108.263 220.423 C 108.707 221.298,109.439 222.305,109.892 222.661 C 110.344 223.017,110.716 223.433,110.718 223.586 C 110.721 223.878,113.158 226.151,115.527 228.071 C 116.299 228.697,117.541 229.386,118.287 229.602 C 119.033 229.817,119.984 230.325,120.402 230.728 C 121.999 232.272,135.781 232.325,138.961 230.799 C 139.943 230.328,141.550 229.845,142.532 229.727 C 144.925 229.439,146.785 228.866,146.981 228.357 C 147.068 228.128,148.309 227.689,149.737 227.382 C 151.951 226.907,152.450 226.672,153.120 225.793 L 153.907 224.763 153.820 196.496 L 153.734 168.229 153.011 167.313 C 152.613 166.809,152.048 165.921,151.756 165.341 C 151.464 164.761,151.101 164.286,150.950 164.286 C 150.798 164.286,150.097 163.738,149.391 163.068 C 146.451 160.279,145.710 159.770,144.269 159.554 C 143.475 159.434,142.618 159.130,142.365 158.877 C 141.028 157.540,133.967 156.944,125.325 157.438 M137.538 158.113 C 138.810 158.278,140.344 158.701,140.948 159.052 C 141.551 159.404,142.891 159.909,143.925 160.175 C 145.182 160.499,146.024 160.937,146.465 161.499 C 146.828 161.960,147.280 162.338,147.469 162.338 C 148.053 162.338,151.134 165.660,152.134 167.370 L 153.084 168.994 153.174 196.553 C 153.275 227.437,153.453 225.145,150.868 226.319 C 150.123 226.657,149.179 226.937,148.772 226.941 C 148.364 226.945,147.303 227.317,146.414 227.767 C 145.524 228.218,143.603 228.813,142.145 229.090 C 140.686 229.366,138.753 229.874,137.849 230.217 C 133.785 231.761,123.781 231.749,121.270 230.197 C 120.693 229.840,119.634 229.342,118.917 229.089 C 116.147 228.111,111.027 223.495,109.059 220.200 C 108.663 219.537,108.012 218.628,107.612 218.182 C 107.213 217.735,106.788 216.900,106.667 216.326 C 106.546 215.751,106.102 214.773,105.680 214.152 C 105.259 213.531,104.665 212.101,104.361 210.975 C 104.057 209.850,103.611 208.608,103.370 208.217 C 102.824 207.330,101.950 202.423,101.942 200.201 C 101.939 199.287,101.720 197.516,101.455 196.266 C 100.852 193.417,100.840 189.664,101.424 186.791 C 101.672 185.574,101.972 183.263,102.090 181.656 C 102.332 178.383,102.773 176.375,103.410 175.649 C 103.645 175.381,104.075 174.340,104.365 173.335 C 104.656 172.331,105.192 171.238,105.558 170.907 C 105.923 170.576,106.436 169.794,106.697 169.169 C 107.299 167.729,112.106 163.049,113.625 162.423 C 114.256 162.163,115.069 161.678,115.430 161.344 C 115.792 161.011,117.107 160.436,118.352 160.066 C 119.598 159.696,121.012 159.175,121.495 158.908 C 123.314 157.902,132.439 157.450,137.538 158.113 " stroke="none" fill="#747474" fill-rule="evenodd"></path></g></svg>